{
  "source": "C:\\Users\\Peter\\Desktop\\stuff\\MIUN\\quantitative_research\\video_compression\\videos\\BVI-HD\\BVI-HD_CDVL_videos\\ORIG\\KineticFastPainting_1920x1080_60fps.mp4",
  "output": "C:\\Users\\Peter\\Desktop\\stuff\\MIUN\\quantitative_research\\video_compression\\compressed_videos\\BVI-HD\\vp9\\1.5\\KineticFastPainting_1920x1080_60fps_vp9.webm",
  "codec": "vp9",
  "ok": "Input #0, mov,mp4,m4a,3gp,3g2,mj2, from 'C:\\Users\\Peter\\Desktop\\stuff\\MIUN\\quantitative_research\\video_compression\\videos\\BVI-HD\\BVI-HD_CDVL_videos\\ORIG\\KineticFastPainting_1920x1080_60fps.mp4':\n  Metadata:\n    major_brand     : isom\n    minor_version   : 512\n    compatible_brands: isomiso2avc1mp41\n    encoder         : Lavf54.28.101\n  Duration: 00:00:05.00, start: 0.000000, bitrate: 477980 kb/s\n  Stream #0:0[0x1](und): Video: h264 (High 4:4:4 Predictive) (avc1 / 0x31637661), yuv420p(progressive), 1920x1080, 477974 kb/s, 60 fps, 60 tbr, 60 tbn (default)\n    Metadata:\n      handler_name    : VideoHandler\n      vendor_id       : [0][0][0][0]\n[out#0/webm @ 0000021c22189100] Codec AVOption b:a (set bitrate (in bits/s)) has not been used for any stream. The most likely reason is either wrong type (e.g. a video option with no video streams) or that it is a private option of some decoder which was not actually used for any stream.\nStream mapping:\n  Stream #0:0 -> #0:0 (h264 (native) -> vp9 (libvpx-vp9))\nPress [q] to stop, [?] for help\n[libvpx-vp9 @ 0000021c242700c0] v1.15.2-100-g40561f514\nOutput #0, webm, to 'C:\\Users\\Peter\\Desktop\\stuff\\MIUN\\quantitative_research\\video_compression\\compressed_videos\\BVI-HD\\vp9\\1.5\\KineticFastPainting_1920x1080_60fps_vp9.webm':\n  Metadata:\n    major_brand     : isom\n    minor_version   : 512\n    compatible_brands: isomiso2avc1mp41\n    encoder         : Lavf62.3.100\n  Stream #0:0(und): Video: vp9, yuv420p(tv, progressive), 1920x1080, q=2-31, 1500 kb/s, 60 fps, 1k tbn (default)\n    Metadata:\n      encoder         : Lavc62.11.100 libvpx-vp9\n      handler_name    : VideoHandler\n      vendor_id       : [0][0][0][0]\n    Side data:\n      cpb: bitrate max/min/avg: 0/0/0 buffer size: 1500000 vbv_delay: N/A\nframe=    0 fps=0.0 q=0.0 size=       0KiB time=N/A bitrate=N/A speed=N/A elapsed=0:00:00.52    \nframe=    3 fps=2.3 q=60.0 size=       1KiB time=00:00:00.05 bitrate= 101.3kbits/s speed=0.039x elapsed=0:00:01.28    \nframe=    8 fps=4.4 q=63.0 size=       1KiB time=00:00:00.13 bitrate=  38.0kbits/s speed=0.0735x elapsed=0:00:01.81    \nframe=   12 fps=5.1 q=63.0 size=       1KiB time=00:00:00.20 bitrate=  25.3kbits/s speed=0.0851x elapsed=0:00:02.35    \nframe=   16 fps=5.5 q=63.0 size=       1KiB time=00:00:00.26 bitrate=  19.0kbits/s speed=0.0914x elapsed=0:00:02.91    \nframe=   19 fps=5.5 q=63.0 size=       1KiB time=00:00:00.31 bitrate=  16.0kbits/s speed=0.0922x elapsed=0:00:03.43    \nframe=   24 fps=6.1 q=63.0 size=       1KiB time=00:00:00.40 bitrate=  12.7kbits/s speed=0.101x elapsed=0:00:03.94    \nframe=   28 fps=6.2 q=63.0 size=       1KiB time=00:00:00.46 bitrate=  10.9kbits/s speed=0.104x elapsed=0:00:04.48    \nframe=   32 fps=6.4 q=63.0 size=       1KiB time=00:00:00.53 bitrate=   9.5kbits/s speed=0.106x elapsed=0:00:05.01    \nframe=   35 fps=6.3 q=63.0 size=       1KiB time=00:00:00.58 bitrate=   8.7kbits/s speed=0.105x elapsed=0:00:05.56    \nframe=   37 fps=6.0 q=56.0 size=       1KiB time=00:00:00.60 bitrate=   8.4kbits/s speed=0.0968x elapsed=0:00:06.19    \nframe=   40 fps=5.9 q=63.0 size=       1KiB time=00:00:00.66 bitrate=   7.6kbits/s speed=0.098x elapsed=0:00:06.80    \nframe=   42 fps=5.7 q=63.0 size=       1KiB time=00:00:00.70 bitrate=   7.2kbits/s speed=0.0949x elapsed=0:00:07.37    \nframe=   46 fps=5.8 q=63.0 size=       1KiB time=00:00:00.75 bitrate=   6.8kbits/s speed=0.0947x elapsed=0:00:07.91    \nframe=   48 fps=5.6 q=63.0 size=       1KiB time=00:00:00.80 bitrate=   6.3kbits/s speed=0.0941x elapsed=0:00:08.50    \nframe=   52 fps=5.7 q=63.0 size=       1KiB time=00:00:00.86 bitrate=   5.8kbits/s speed=0.0954x elapsed=0:00:09.08    \nframe=   55 fps=5.7 q=56.0 size=       1KiB time=00:00:00.91 bitrate=   5.5kbits/s speed=0.0952x elapsed=0:00:09.63    \nframe=   59 fps=5.8 q=63.0 size=       1KiB time=00:00:00.98 bitrate=   5.1kbits/s speed=0.0961x elapsed=0:00:10.22    \nframe=   61 fps=5.7 q=56.0 size=       1KiB time=00:00:01.01 bitrate=   5.0kbits/s speed=0.0942x elapsed=0:00:10.79    \nframe=   66 fps=5.8 q=63.0 size=       1KiB time=00:00:01.10 bitrate=   4.6kbits/s speed=0.0971x elapsed=0:00:11.32    \nframe=   68 fps=5.7 q=63.0 size=       1KiB time=00:00:01.13 bitrate=   4.5kbits/s speed=0.0953x elapsed=0:00:11.89    \nframe=   71 fps=5.7 q=63.0 size=       1KiB time=00:00:01.18 bitrate=   4.3kbits/s speed=0.0949x elapsed=0:00:12.46    \nframe=   73 fps=5.6 q=56.0 size=       1KiB time=00:00:01.21 bitrate=   4.2kbits/s speed=0.0933x elapsed=0:00:13.03    \nframe=   77 fps=5.7 q=63.0 size=       1KiB time=00:00:01.28 bitrate=   3.9kbits/s speed=0.0946x elapsed=0:00:13.56    \nframe=   81 fps=5.8 q=63.0 size=       1KiB time=00:00:01.35 bitrate=   3.8kbits/s speed=0.0959x elapsed=0:00:14.08    \nframe=   83 fps=5.7 q=63.0 size=       1KiB time=00:00:01.38 bitrate=   3.7kbits/s speed=0.0947x elapsed=0:00:14.60    \nframe=   85 fps=5.6 q=56.0 size=       1KiB time=00:00:01.41 bitrate=   3.6kbits/s speed=0.0936x elapsed=0:00:15.13    \nframe=   89 fps=5.7 q=63.0 size=       1KiB time=00:00:01.48 bitrate=   3.4kbits/s speed=0.0945x elapsed=0:00:15.69    \nframe=   93 fps=5.7 q=63.0 size=       1KiB time=00:00:01.55 bitrate=   3.3kbits/s speed=0.0953x elapsed=0:00:16.26    \nframe=   96 fps=5.7 q=63.0 size=       1KiB time=00:00:01.60 bitrate=   3.2kbits/s speed=0.0953x elapsed=0:00:16.79    \nframe=   98 fps=5.6 q=63.0 size=       1KiB time=00:00:01.63 bitrate=   3.1kbits/s speed=0.0938x elapsed=0:00:17.40    \nframe=  102 fps=5.7 q=63.0 size=       1KiB time=00:00:01.70 bitrate=   3.0kbits/s speed=0.0945x elapsed=0:00:17.98    \nframe=  105 fps=5.7 q=63.0 size=       1KiB time=00:00:01.75 bitrate=   2.9kbits/s speed=0.0944x elapsed=0:00:18.54    \nframe=  108 fps=5.7 q=63.0 size=       1KiB time=00:00:01.80 bitrate=   2.8kbits/s speed=0.0944x elapsed=0:00:19.06    \nframe=  111 fps=5.7 q=63.0 size=       1KiB time=00:00:01.85 bitrate=   2.7kbits/s speed=0.0943x elapsed=0:00:19.61    \nframe=  114 fps=5.6 q=63.0 size=       1KiB time=00:00:01.90 bitrate=   2.7kbits/s speed=0.0939x elapsed=0:00:20.22    \nframe=  118 fps=5.7 q=63.0 size=       1KiB time=00:00:01.96 bitrate=   2.6kbits/s speed=0.0947x elapsed=0:00:20.77    \nframe=  120 fps=5.6 q=63.0 size=       1KiB time=00:00:02.00 bitrate=   2.5kbits/s speed=0.0939x elapsed=0:00:21.30    \nframe=  124 fps=5.7 q=62.0 size=       1KiB time=00:00:02.06 bitrate=   2.5kbits/s speed=0.0946x elapsed=0:00:21.84    \nframe=  127 fps=5.7 q=63.0 size=       1KiB time=00:00:02.11 bitrate=   2.4kbits/s speed=0.0945x elapsed=0:00:22.40    \nframe=  131 fps=5.7 q=63.0 size=     256KiB time=00:00:02.18 bitrate= 960.5kbits/s speed=0.0951x elapsed=0:00:22.94    \nframe=  134 fps=5.7 q=63.0 size=     256KiB time=00:00:02.23 bitrate= 939.0kbits/s speed=0.095x elapsed=0:00:23.49    \nframe=  137 fps=5.7 q=63.0 size=     256KiB time=00:00:02.28 bitrate= 918.5kbits/s speed=0.0948x elapsed=0:00:24.09    \nframe=  140 fps=5.7 q=63.0 size=     256KiB time=00:00:02.33 bitrate= 898.8kbits/s speed=0.0947x elapsed=0:00:24.63    \nframe=  144 fps=5.7 q=63.0 size=     256KiB time=00:00:02.40 bitrate= 873.8kbits/s speed=0.0953x elapsed=0:00:25.17    \nframe=  146 fps=5.7 q=63.0 size=     256KiB time=00:00:02.43 bitrate= 861.8kbits/s speed=0.0946x elapsed=0:00:25.73    \nframe=  148 fps=5.6 q=63.0 size=     256KiB time=00:00:02.46 bitrate= 850.2kbits/s speed=0.0938x elapsed=0:00:26.30    \nframe=  152 fps=5.7 q=63.0 size=     256KiB time=00:00:02.53 bitrate= 827.8kbits/s speed=0.0944x elapsed=0:00:26.83    \nframe=  154 fps=5.6 q=63.0 size=     256KiB time=00:00:02.56 bitrate= 817.1kbits/s speed=0.0937x elapsed=0:00:27.38    \nframe=  157 fps=5.6 q=63.0 size=     256KiB time=00:00:02.61 bitrate= 801.5kbits/s speed=0.0937x elapsed=0:00:27.92    \nframe=  160 fps=5.6 q=63.0 size=     256KiB time=00:00:02.66 bitrate= 786.4kbits/s speed=0.0936x elapsed=0:00:28.48    \nframe=  164 fps=5.6 q=63.0 size=     256KiB time=00:00:02.73 bitrate= 767.3kbits/s speed=0.0941x elapsed=0:00:29.03    \nframe=  165 fps=5.6 q=56.0 size=     256KiB time=00:00:02.75 bitrate= 762.6kbits/s speed=0.093x elapsed=0:00:29.55    \nframe=  168 fps=5.6 q=63.0 size=     256KiB time=00:00:02.80 bitrate= 749.0kbits/s speed=0.0931x elapsed=0:00:30.07    \nframe=  171 fps=5.6 q=56.0 size=     256KiB time=00:00:02.85 bitrate= 735.8kbits/s speed=0.0931x elapsed=0:00:30.60    \nframe=  174 fps=5.6 q=63.0 size=     256KiB time=00:00:02.90 bitrate= 723.2kbits/s speed=0.093x elapsed=0:00:31.18    \nframe=  176 fps=5.5 q=63.0 size=     256KiB time=00:00:02.93 bitrate= 714.9kbits/s speed=0.0924x elapsed=0:00:31.74    \nframe=  179 fps=5.5 q=63.0 size=     256KiB time=00:00:02.98 bitrate= 703.0kbits/s speed=0.0923x elapsed=0:00:32.31    \nframe=  182 fps=5.5 q=63.0 size=     256KiB time=00:00:03.03 bitrate= 691.4kbits/s speed=0.0924x elapsed=0:00:32.83    \nframe=  186 fps=5.6 q=63.0 size=     256KiB time=00:00:03.10 bitrate= 676.5kbits/s speed=0.0929x elapsed=0:00:33.36    \nframe=  188 fps=5.5 q=63.0 size=     256KiB time=00:00:03.13 bitrate= 669.3kbits/s speed=0.0923x elapsed=0:00:33.93    \nframe=  192 fps=5.6 q=63.0 size=     256KiB time=00:00:03.20 bitrate= 655.4kbits/s speed=0.0927x elapsed=0:00:34.52    \nframe=  195 fps=5.6 q=56.0 size=     256KiB time=00:00:03.25 bitrate= 645.3kbits/s speed=0.0927x elapsed=0:00:35.05    \nframe=  199 fps=5.6 q=63.0 size=     256KiB time=00:00:03.31 bitrate= 632.3kbits/s speed=0.0932x elapsed=0:00:35.58    \nframe=  201 fps=5.6 q=56.0 size=     256KiB time=00:00:03.35 bitrate= 626.0kbits/s speed=0.0926x elapsed=0:00:36.16    \nframe=  205 fps=5.6 q=63.0 size=     256KiB time=00:00:03.41 bitrate= 613.8kbits/s speed=0.0929x elapsed=0:00:36.78    \nframe=  208 fps=5.6 q=63.0 size=     256KiB time=00:00:03.46 bitrate= 604.9kbits/s speed=0.0927x elapsed=0:00:37.38    \nframe=  211 fps=5.6 q=63.0 size=     256KiB time=00:00:03.51 bitrate= 596.3kbits/s speed=0.0925x elapsed=0:00:38.00    \nframe=  213 fps=5.5 q=56.0 size=     256KiB time=00:00:03.55 bitrate= 590.7kbits/s speed=0.092x elapsed=0:00:38.59    \nframe=  217 fps=5.5 q=63.0 size=     256KiB time=00:00:03.60 bitrate= 582.5kbits/s speed=0.092x elapsed=0:00:39.13    \nframe=  219 fps=5.5 q=56.0 size=     256KiB time=00:00:03.65 bitrate= 574.6kbits/s speed=0.0919x elapsed=0:00:39.71    \nframe=  222 fps=5.5 q=63.0 size=     256KiB time=00:00:03.70 bitrate= 566.8kbits/s speed=0.0917x elapsed=0:00:40.32    \nframe=  224 fps=5.5 q=63.0 size=     256KiB time=00:00:03.73 bitrate= 561.7kbits/s speed=0.0913x elapsed=0:00:40.88    \nframe=  228 fps=5.5 q=63.0 size=     256KiB time=00:00:03.80 bitrate= 551.9kbits/s speed=0.0917x elapsed=0:00:41.42    \nframe=  230 fps=5.5 q=63.0 size=     256KiB time=00:00:03.83 bitrate= 547.1kbits/s speed=0.0912x elapsed=0:00:42.01    \nframe=  232 fps=5.4 q=63.0 size=     256KiB time=00:00:03.86 bitrate= 542.4kbits/s speed=0.0907x elapsed=0:00:42.64    \nframe=  235 fps=5.4 q=63.0 size=     256KiB time=00:00:03.91 bitrate= 535.4kbits/s speed=0.0906x elapsed=0:00:43.24    \nframe=  236 fps=5.4 q=63.0 size=     256KiB time=00:00:03.93 bitrate= 533.2kbits/s speed=0.0898x elapsed=0:00:43.81    \nframe=  239 fps=5.4 q=63.0 size=     256KiB time=00:00:03.96 bitrate= 528.7kbits/s speed=0.0894x elapsed=0:00:44.36    \nframe=  241 fps=5.4 q=63.0 size=     256KiB time=00:00:04.01 bitrate= 522.1kbits/s speed=0.0892x elapsed=0:00:45.01    \nframe=  242 fps=5.3 q=63.0 size=     256KiB time=00:00:04.03 bitrate= 520.0kbits/s speed=0.0884x elapsed=0:00:45.61    \nframe=  245 fps=5.3 q=63.0 size=     256KiB time=00:00:04.06 bitrate= 515.7kbits/s speed=0.0879x elapsed=0:00:46.25    \nframe=  247 fps=5.3 q=63.0 size=     256KiB time=00:00:04.11 bitrate= 509.4kbits/s speed=0.0878x elapsed=0:00:46.89    \nframe=  249 fps=5.2 q=55.0 size=     256KiB time=00:00:04.13 bitrate= 507.4kbits/s speed=0.0871x elapsed=0:00:47.47    \nframe=  252 fps=5.2 q=63.0 size=     256KiB time=00:00:04.20 bitrate= 499.3kbits/s speed=0.0873x elapsed=0:00:48.08    \nframe=  254 fps=5.2 q=63.0 size=     256KiB time=00:00:04.23 bitrate= 495.4kbits/s speed=0.0868x elapsed=0:00:48.79    \nframe=  256 fps=5.2 q=63.0 size=     256KiB time=00:00:04.26 bitrate= 491.5kbits/s speed=0.0863x elapsed=0:00:49.41    \nframe=  260 fps=5.2 q=63.0 size=     768KiB time=00:00:04.33 bitrate=1451.9kbits/s speed=0.0866x elapsed=0:00:50.04    \nframe=  262 fps=5.2 q=63.0 size=     768KiB time=00:00:04.36 bitrate=1440.8kbits/s speed=0.0862x elapsed=0:00:50.65    \nframe=  266 fps=5.2 q=63.0 size=     768KiB time=00:00:04.43 bitrate=1419.1kbits/s speed=0.0866x elapsed=0:00:51.21    \nframe=  270 fps=5.2 q=63.0 size=     768KiB time=00:00:04.48 bitrate=1403.3kbits/s speed=0.0866x elapsed=0:00:51.74    \nframe=  274 fps=5.2 q=63.0 size=     768KiB time=00:00:04.55 bitrate=1382.7kbits/s speed=0.087x elapsed=0:00:52.31    \nframe=  276 fps=5.2 q=63.0 size=     768KiB time=00:00:04.60 bitrate=1367.7kbits/s speed=0.087x elapsed=0:00:52.85    \nframe=  276 fps=5.2 q=63.0 size=     768KiB time=00:00:04.60 bitrate=1367.7kbits/s speed=0.0861x elapsed=0:00:53.40    \nframe=  276 fps=5.1 q=63.0 size=     768KiB time=00:00:04.60 bitrate=1367.7kbits/s speed=0.0852x elapsed=0:00:53.98    \nframe=  276 fps=5.1 q=63.0 size=     768KiB time=00:00:04.60 bitrate=1367.7kbits/s speed=0.0843x elapsed=0:00:54.54    \nframe=  276 fps=5.0 q=63.0 size=     768KiB time=00:00:04.60 bitrate=1367.7kbits/s speed=0.0835x elapsed=0:00:55.11    \nframe=  276 fps=5.0 q=63.0 size=     768KiB time=00:00:04.60 bitrate=1367.7kbits/s speed=0.0827x elapsed=0:00:55.64    \nframe=  276 fps=4.9 q=63.0 size=     768KiB time=00:00:04.60 bitrate=1367.7kbits/s speed=0.0818x elapsed=0:00:56.20    \n[out#0/webm @ 0000021c22189100] video:1021KiB audio:0KiB subtitle:0KiB other streams:0KiB global headers:0KiB muxing overhead: 0.270363%\nframe=  300 fps=5.3 q=63.0 Lsize=    1024KiB time=00:00:05.00 bitrate=1676.9kbits/s speed=0.0881x elapsed=0:00:56.73    \n",
  "seconds": 57.202019453048706,
  "probe_out": {}
}